<svg xmlns="http://www.w3.org/2000/svg" fill="none" viewBox="0 0 20 20">
  <g clip-path="url(#evIgMWmL56a)">
    <path fill-rule="evenodd" clip-rule="evenodd" d="M10 14.667c-3.596 0-6.627-1.838-8.538-4.667C3.372 7.17 6.404 5.333 10 5.333S16.627 7.171 18.538 10c-1.91 2.83-4.942 4.667-8.538 4.667zM10 4C5.744 4 2.209 6.275.101 9.647a.667.667 0 000 .706C2.21 13.725 5.744 16 10 16c4.256 0 7.791-2.275 9.899-5.647a.667.667 0 000-.706C17.79 6.275 14.256 4 10 4zm0 8.667a2.667 2.667 0 100-5.334 2.667 2.667 0 000 5.334z" fill="#228BE6"/>
  </g>
  <defs>
    <clipPath id="evIgMWmL56a">
      <path fill="#fff" d="M0 0h20v20H0z"/>
    </clipPath>
  </defs>
</svg>
